<svg width="250" height="150" viewBox="0 0 250 150" fill="none" xmlns="http://www.w3.org/2000/svg">
<path fill-rule="evenodd" clip-rule="evenodd" d="M151.959 93.6205C138.99 103.209 120.127 108.318 103.858 108.318C81.0645 108.318 60.6295 99.9082 45.0674 85.918C43.8884 84.8176 44.9102 83.3243 46.4035 84.1889C63.1445 93.9348 83.8154 99.751 105.194 99.751C119.577 99.751 135.453 96.7643 150.072 90.5552C152.273 89.6906 154.081 92.0485 151.959 93.6205Z" fill="#FF9900"/>
<path fill-rule="evenodd" clip-rule="evenodd" d="M157.382 87.4112C155.731 85.2891 146.378 86.3894 142.213 86.9396C140.955 87.0968 140.719 85.9965 141.898 85.2105C149.365 79.9445 161.547 81.5165 162.962 83.2456C164.377 84.9747 162.569 97.2358 155.574 103.052C154.474 103.916 153.452 103.445 153.924 102.266C155.495 98.3361 159.032 89.6119 157.382 87.4112Z" fill="#FF9900"/>
<path fill-rule="evenodd" clip-rule="evenodd" d="M142.448 48.2701V43.1614C142.448 42.3754 142.999 41.9038 143.706 41.9038H166.499C167.206 41.9038 167.835 42.454 167.835 43.1614V47.4842C167.835 48.1915 167.206 49.1347 166.106 50.7066L154.316 67.5263C158.718 67.4477 163.355 68.0765 167.285 70.2772C168.149 70.7487 168.385 71.5347 168.464 72.2421V77.6652C168.464 78.4512 167.678 79.3158 166.813 78.8442C159.818 75.1501 150.465 74.7572 142.763 78.9228C141.977 79.3158 141.112 78.5298 141.112 77.7438V72.5565C141.112 71.7705 141.112 70.3558 141.977 69.0982L155.653 49.5277H143.785C143.077 49.5277 142.448 48.9775 142.448 48.2701ZM59.3719 79.9445H52.4554C51.8267 79.8659 51.2765 79.3943 51.1979 78.7656V43.24C51.1979 42.5326 51.8267 41.9824 52.534 41.9824H58.979C59.6863 41.9824 60.1579 42.5326 60.2365 43.1614V47.7986H60.3937C62.0442 43.3186 65.2667 41.1965 69.5109 41.1965C73.8337 41.1965 76.5846 43.3186 78.4709 47.7986C80.1214 43.3186 83.9726 41.1965 88.0597 41.1965C90.9677 41.1965 94.1116 42.3754 96.0765 45.1263C98.2772 48.113 97.8056 52.4358 97.8056 56.287V78.7656C97.8056 79.4729 97.1769 80.0231 96.4695 80.0231H89.6316C88.9242 79.9445 88.374 79.3943 88.374 78.7656V59.9024C88.374 58.4091 88.5312 54.6365 88.2169 53.2217C87.6667 50.8638 86.1733 50.1565 84.1298 50.1565C82.4793 50.1565 80.6716 51.2568 79.9642 53.0645C79.2569 54.8723 79.3354 57.8589 79.3354 59.9024V78.7656C79.3354 79.4729 78.7067 80.0231 77.9993 80.0231H71.0828C70.3754 79.9445 69.8253 79.3943 69.8253 78.7656V59.9024C69.8253 55.9726 70.454 50.0779 65.5811 50.0779C60.6295 50.0779 60.7867 55.7368 60.7867 59.9024V78.7656C60.7081 79.3943 60.1579 79.9445 59.3719 79.9445ZM187.484 41.1965C197.78 41.1965 203.361 49.9993 203.361 61.2386C203.361 72.0849 197.23 80.7305 187.484 80.7305C177.424 80.7305 171.922 71.9277 171.922 60.9242C171.844 49.8421 177.424 41.1965 187.484 41.1965ZM187.484 48.5059C182.375 48.5059 182.061 55.501 182.061 59.8238C182.061 64.1466 181.982 73.421 187.406 73.421C192.75 73.421 193.065 65.9544 193.065 61.3958C193.065 58.4091 192.907 54.7937 192.043 51.9642C191.257 49.4491 189.685 48.5059 187.484 48.5059ZM216.644 79.9445H209.727C209.02 79.8659 208.469 79.3158 208.469 78.687V43.0828C208.548 42.454 209.098 41.9038 209.806 41.9038H216.251C216.879 41.9038 217.351 42.3754 217.508 42.9256V48.3487H217.665C219.63 43.4758 222.302 41.1965 227.097 41.1965C230.162 41.1965 233.227 42.2968 235.192 45.3621C237 48.1915 237 52.9859 237 56.4442V78.8442C236.921 79.4729 236.371 79.9445 235.664 79.9445H228.747C228.119 79.8659 227.568 79.3943 227.49 78.8442V59.5094C227.49 55.5796 227.961 49.9207 223.167 49.9207C221.516 49.9207 219.945 51.021 219.159 52.7502C218.215 54.9509 218.058 57.0729 218.058 59.5094V78.687C217.98 79.3944 217.351 79.9445 216.644 79.9445ZM124.293 62.9677C124.293 65.64 124.371 67.9193 123.035 70.3558C121.935 72.3207 120.206 73.4996 118.241 73.4996C115.568 73.4996 113.996 71.4561 113.996 68.4695C113.996 62.5747 119.262 61.4743 124.293 61.4743V62.9677ZM131.288 79.8659C130.816 80.2589 130.187 80.3375 129.637 80.0231C127.358 78.1368 126.886 77.1936 125.629 75.3859C121.856 79.2372 119.105 80.4161 114.232 80.4161C108.416 80.4161 103.858 76.8007 103.858 69.6484C103.858 63.9895 106.923 60.2168 111.246 58.3305C115.018 56.68 120.284 56.3656 124.293 55.894V55.0294C124.293 53.3789 124.45 51.414 123.428 49.9993C122.564 48.7417 120.992 48.1915 119.577 48.1915C116.905 48.1915 114.547 49.5277 113.996 52.3572C113.839 52.9859 113.446 53.6147 112.818 53.6147L106.137 52.9073C105.587 52.7501 104.958 52.3572 105.115 51.4926C106.687 43.3186 113.996 40.8821 120.599 40.8821C123.978 40.8821 128.38 41.7466 131.052 44.3403C134.432 47.4842 134.117 51.7284 134.117 56.287V67.0547C134.117 70.2772 135.453 71.6919 136.711 73.4996C137.182 74.1284 137.261 74.9143 136.711 75.3073C135.218 76.4863 132.702 78.687 131.288 79.8659ZM33.5137 62.9677C33.5137 65.64 33.5923 67.9193 32.2562 70.3558C31.1558 72.3207 29.4267 73.4996 27.4618 73.4996C24.7895 73.4996 23.2176 71.4561 23.2176 68.4695C23.2176 62.5747 28.4835 61.4743 33.5137 61.4743V62.9677ZM40.4302 79.8659C39.9586 80.2589 39.3298 80.3375 38.7797 80.0231C36.5004 78.1368 36.0288 77.1936 34.7712 75.3859C30.9986 79.2372 28.2477 80.4161 23.3747 80.4161C17.5586 80.4161 13 76.8007 13 69.6484C13 63.9895 16.0653 60.2168 20.3881 58.3305C24.1607 56.68 29.4267 56.3656 33.4351 55.894V55.0294C33.4351 53.3789 33.5923 51.414 32.5705 49.9993C31.706 48.7417 30.134 48.1915 28.7193 48.1915C26.047 48.1915 23.6891 49.5277 23.139 52.3572C22.9818 52.9859 22.5888 53.6147 21.96 53.6147L15.2793 52.9073C14.7291 52.7501 14.1004 52.3572 14.2576 51.4926C15.8295 43.3186 23.139 40.8821 29.7411 40.8821C33.1207 40.8821 37.5221 41.7466 40.1944 44.3403C43.5741 47.4842 43.2597 51.7284 43.2597 56.287V67.0547C43.2597 70.2772 44.5958 71.6919 45.8533 73.4996C46.3249 74.1284 46.4035 74.9143 45.8533 75.3073C44.36 76.4863 41.8449 78.687 40.4302 79.8659Z" fill="black"/>
</svg>
