<svg width="250" height="150" viewBox="0 0 250 150" fill="none" xmlns="http://www.w3.org/2000/svg">
<path d="M30 37V42.1997H66.9831V37H30ZM72.2229 37V42.1997H124.926C124.926 42.1997 119.542 37 112.412 37H72.2229ZM135.264 37V42.1997H167.149L165.256 37H135.264ZM190.008 37L188.116 42.1997H219.71V37H190.008ZM30 47.1122V52.3119H66.9831V47.1122H30ZM72.2229 47.1196V52.3121H131.041C131.041 52.3121 130.354 48.3101 129.156 47.1196H72.2229ZM135.264 47.1196V52.3121H170.644L168.893 47.1196H135.264ZM186.223 47.1196L184.471 52.3121H219.71V47.1196H186.223ZM40.628 57.2244V62.4315H56.6445V57.2244H40.628ZM82.8512 57.2244V62.4315H98.8676V57.2244H82.8512ZM114.446 57.2244V62.4315H130.463C130.463 62.4315 131.479 59.6816 131.479 57.2244H114.446ZM145.893 57.2244V62.4315H174.289L172.396 57.2244H145.893ZM182.735 57.2244L180.835 62.4315H209.372V57.2244H182.735ZM40.628 67.3441V72.5439H56.6445V67.3441H40.628ZM82.8512 67.3441V72.5439H123.76C123.76 72.5439 127.183 69.8759 128.273 67.3441H82.8512ZM145.893 67.3441V72.5439H161.909V69.6494L162.926 72.5439H192.265L193.356 69.6494V72.5439H209.372V67.3441H179.306L177.71 71.7483L176.107 67.3441H145.893ZM40.628 77.4563V82.656H56.6445V77.4563H40.628ZM82.8512 77.4563V82.656H128.273C127.183 80.1327 123.76 77.4563 123.76 77.4563H82.8512ZM145.893 77.4563V82.656H161.909V77.4563H145.893ZM164.818 77.4563L166.755 82.656H188.754L190.594 77.4563H164.818ZM193.355 77.4563V82.656H209.372V77.4563H193.355ZM40.628 87.5685V92.768H56.6445V87.5685H40.628ZM82.8512 87.5685V92.768H98.8676V87.5685H82.8512ZM114.446 87.5685V92.768H131.479C131.479 90.3142 130.462 87.5685 130.462 87.5685H114.446ZM145.893 87.5685V92.768H161.909V87.5685H145.893ZM168.455 87.5685L170.333 92.768H185.08L186.973 87.5685H168.455ZM193.355 87.5685V92.768H209.372V87.5685H193.355ZM30.2894 97.6807V102.888H67.2725V97.6807H30.2894ZM72.2229 97.6807V102.888H129.156C130.354 101.696 131.041 97.6807 131.041 97.6807H72.2229ZM135.554 97.6807V102.888H161.909V97.6807H135.554ZM172.099 97.6807L174.029 102.888H181.532L183.343 97.6807H172.099ZM193.355 97.6807V102.888H220V97.6807H193.355ZM30.2894 107.8V113H67.2725V107.8H30.2894ZM72.2229 107.8V112.993H112.412C119.542 112.993 124.926 107.8 124.926 107.8H72.2229ZM135.554 107.8V113H161.909V107.8H135.554ZM175.758 107.8L177.614 112.985L177.933 112.993L179.818 107.8H175.758ZM193.355 107.8V113H220V107.8H193.355Z" fill="#1F70C1"/>
</svg>
