<svg width="250" height="150" viewBox="0 0 250 150" fill="none" xmlns="http://www.w3.org/2000/svg">
<path fill-rule="evenodd" clip-rule="evenodd" d="M125.049 117.568C135.065 126.797 148.516 132.395 163.147 132.395C194.568 132.395 220 106.767 220 75.246C220 43.6293 194.568 18 163.147 18C148.516 18 135.065 23.5969 125.049 32.8272C113.561 43.3334 106.294 58.4553 106.294 75.246C106.295 92.0368 113.561 107.16 125.049 117.568Z" fill="#E9B040"/>
<path fill-rule="evenodd" clip-rule="evenodd" d="M212.442 107.06C212.442 106.078 213.228 105.293 214.209 105.293C215.288 105.293 216.073 106.079 216.073 107.06C216.073 108.142 215.287 108.927 214.209 108.927C213.228 108.927 212.442 108.142 212.442 107.06ZM214.209 108.535C214.995 108.535 215.68 107.846 215.68 107.062C215.68 106.277 214.994 105.688 214.209 105.688C213.52 105.688 212.835 106.277 212.835 107.062C212.835 107.846 213.521 108.535 214.209 108.535ZM214.012 107.946H213.62V106.276H214.306C214.405 106.276 214.602 106.276 214.699 106.375C214.895 106.472 214.895 106.572 214.895 106.768C214.895 106.965 214.798 107.161 214.602 107.161L214.995 107.947H214.502L214.306 107.258H214.012V107.946V106.963H214.405C214.502 106.963 214.502 106.864 214.502 106.767C214.502 106.668 214.502 106.668 214.405 106.57H214.012V107.946Z" fill="#E9B040"/>
<path fill-rule="evenodd" clip-rule="evenodd" d="M143.412 69.1591C143.215 67.0974 142.822 65.1339 142.429 63.0711H107.669C108.062 61.0094 108.651 59.0459 109.24 57.0813H140.76C140.076 55.0141 139.29 52.9823 138.404 50.9932H111.695C112.678 48.9133 113.759 46.8816 114.936 44.9051H135.066C133.771 42.808 132.328 40.8063 130.747 38.9153H119.257C121.034 36.7449 122.971 34.7099 125.05 32.8272C114.937 23.6951 101.582 18 86.8531 18C55.5299 18 30 43.6293 30 75.246C30 106.767 55.5299 132.395 86.8531 132.395C101.582 132.395 114.936 126.797 125.05 117.568C127.098 115.718 129.002 113.715 130.747 111.577H119.257C117.685 109.613 116.311 107.65 114.936 105.489H135.066C136.332 103.547 137.448 101.512 138.405 99.4007H111.695C110.811 97.4372 109.928 95.4737 109.24 93.4097H140.76C141.447 91.4462 141.939 89.3857 142.428 87.3216C142.821 85.3582 143.214 83.2976 143.41 81.2336C143.609 79.2428 143.708 77.2433 143.706 75.2426C143.706 73.1843 143.608 71.1226 143.412 69.1591Z" fill="#CC2131"/>
<path fill-rule="evenodd" clip-rule="evenodd" d="M212.442 88.5028C212.442 87.4234 213.228 86.6387 214.209 86.6387C215.288 86.6387 216.073 87.4245 216.073 88.5028C216.073 89.4851 215.287 90.3692 214.209 90.3692C213.228 90.3692 212.442 89.4839 212.442 88.5028ZM214.209 89.8769C214.995 89.8769 215.68 89.2875 215.68 88.5028C215.68 87.7181 214.994 87.1287 214.209 87.1287C213.52 87.1287 212.835 87.7181 212.835 88.5028C212.835 89.2875 213.521 89.8769 214.209 89.8769ZM214.012 89.2875H213.62V87.7169H214.699C214.895 87.8163 214.895 88.0128 214.895 88.2092C214.895 88.3063 214.798 88.5028 214.602 88.6021L214.995 89.2886H214.502L214.306 88.6992H214.012V89.2875V88.4045H214.209C214.306 88.4045 214.405 88.4045 214.405 88.3051C214.502 88.3051 214.502 88.2081 214.502 88.1087C214.502 88.1087 214.502 88.0116 214.405 88.0116C214.405 87.9122 214.306 88.0116 214.209 88.0116H214.012V89.2875Z" fill="white"/>
<path fill-rule="evenodd" clip-rule="evenodd" d="M105.706 91.7432C103.84 92.2332 102.465 92.5291 101.091 92.5291C98.1452 92.5291 96.377 90.6627 96.377 87.324C96.377 86.6375 96.4752 85.9499 96.5734 85.164L96.9664 82.907L97.2611 81.0406L99.9122 64.9375H105.804L105.116 68.4727H108.848L107.964 74.3643H104.232L102.661 83.9864C102.563 84.4787 102.563 84.7722 102.563 84.9687C102.563 86.2457 103.153 86.7357 104.625 86.7357C105.313 86.7357 105.901 86.6387 106.49 86.5393L105.706 91.7432ZM124.756 91.5468C122.596 92.1362 120.632 92.4297 118.471 92.4297C111.794 92.4297 107.964 88.8945 107.964 81.9247C107.964 73.7737 112.481 67.8821 118.765 67.8821C123.772 67.8821 127.013 71.2209 127.013 76.4237C127.013 78.193 126.816 79.8618 126.326 82.2182H114.052C113.954 82.6111 113.954 82.8076 113.954 83.0041C113.954 85.7534 115.819 87.1275 119.354 87.1275C121.612 87.1275 123.576 86.6375 125.737 85.6563L124.756 91.5468ZM121.122 77.5054V76.3266C121.122 74.3631 120.042 73.2826 118.176 73.2826C116.212 73.2826 114.838 74.7549 114.248 77.5042L121.122 77.5054ZM58.5727 92.0368H52.4847L56.0199 69.7486L48.0666 92.0368H43.8449L43.3537 69.8468L39.6221 92.0368H33.6323L38.4433 63.0711H47.3789L47.5754 80.9435L53.5652 63.0711H63.385L58.5727 92.0368ZM73.4011 81.5318C72.8117 81.4324 72.6153 81.4324 72.2223 81.4324C68.6872 81.4324 66.9201 82.8065 66.9201 84.9676C66.9201 86.441 67.8042 87.4234 69.1783 87.4234C72.1241 87.4234 73.3017 84.9676 73.4011 81.5318ZM78.3104 92.0368H73.0082L73.1064 89.5833C71.7312 91.4474 69.8659 92.4297 66.6255 92.4297C63.6796 92.4297 61.1268 89.7798 61.1268 85.9499C61.1268 84.8705 61.3232 83.8893 61.6179 82.907C62.5991 79.2724 66.2325 77.0154 71.8294 76.916C72.517 76.916 73.5964 76.916 74.5788 77.0154C74.7741 76.2295 74.7741 75.9337 74.7741 75.4437C74.7741 73.872 73.4982 73.3808 70.6506 73.3808C68.8836 73.3808 66.919 73.6755 65.5449 74.1667L64.6608 74.3631L64.2679 74.4602L65.152 69.158C67.9995 68.2739 70.0612 67.8821 72.3206 67.8821C77.6228 67.8821 80.4704 70.3368 80.4704 74.8531C80.4704 76.0319 80.5686 76.916 80.1757 79.4689L78.8016 87.9133L78.6051 89.3868L78.5069 90.5656L78.4086 91.3515L78.3104 92.0368ZM154.41 68.668C156.177 68.668 157.749 69.1592 159.909 70.2386L160.988 63.954C160.399 63.6593 160.202 63.6593 159.418 63.3646L156.964 62.677C156.178 62.4806 155.197 62.3823 154.115 62.3823C151.07 62.3823 149.303 62.4806 147.439 63.5611C146.457 64.2487 145.18 65.1328 143.804 66.7034L143.019 66.5069L136.734 70.925L137.03 68.4704H130.548L126.72 92.0356H132.908L135.165 79.3706C135.165 79.3706 136.05 77.6013 136.442 77.0142C137.62 75.5408 138.602 75.5408 139.878 75.5408H140.37C140.164 77.0372 140.065 78.5465 140.074 80.0571C140.074 87.7157 144.394 92.5279 151.071 92.5279C152.741 92.5279 154.216 92.3315 156.473 91.7421L157.555 85.0658C155.591 86.1452 153.823 86.6363 152.349 86.6363C148.717 86.6363 146.555 83.887 146.555 79.5671C146.553 73.1844 149.794 68.668 154.41 68.668ZM206.548 63.0711L205.175 71.3191C203.702 69.0609 201.933 67.9804 199.577 67.9804C196.335 67.9804 193.293 69.8456 191.426 73.3808V73.2837L187.499 70.9262L187.892 68.4715H181.313L177.581 92.0368H183.669L185.732 79.3718C185.732 79.3718 187.303 77.6025 187.696 77.0154C188.678 75.8366 189.659 75.639 190.445 75.5419C189.758 77.5054 189.366 79.8618 189.366 82.5141C189.366 88.4057 192.408 92.3326 196.925 92.3326C199.184 92.3326 200.951 91.5468 202.62 89.6804L202.326 92.0368H208.121L212.834 63.0711H206.548ZM198.989 86.441C196.926 86.441 195.847 84.8705 195.847 81.8253C195.847 77.2095 197.81 73.872 200.656 73.872C202.816 73.872 203.898 75.5419 203.898 78.4877C203.898 83.2005 201.935 86.441 198.989 86.441ZM170.613 81.5318C170.023 81.4324 169.827 81.4324 169.434 81.4324C165.896 81.4324 164.129 82.8065 164.129 84.9676C164.129 86.441 165.014 87.4234 166.389 87.4234C169.334 87.4234 170.513 84.9676 170.613 81.5318ZM175.522 92.0368H170.12L170.317 89.5833C168.943 91.4474 167.075 92.4297 163.837 92.4297C160.792 92.4297 158.142 89.8768 158.142 85.9499C158.142 80.3541 162.362 76.9172 169.04 76.9172C169.728 76.9172 170.807 76.9172 171.692 77.0166C171.888 76.2307 171.988 75.9349 171.988 75.4448C171.988 73.8731 170.711 73.382 167.765 73.382C166.095 73.382 164.033 73.6767 162.659 74.1678L161.873 74.3643L161.48 74.4614L162.363 69.1592C165.212 68.2751 167.275 67.8833 169.532 67.8833C174.834 67.8833 177.584 70.3379 177.584 74.8543C177.584 76.0331 177.78 76.9172 177.29 79.47L176.013 87.9145L175.816 89.388L175.62 90.5668L175.523 91.3526V92.0368H175.522ZM91.173 73.4791C92.3518 73.4791 94.0206 73.5773 95.7887 73.872L96.6728 68.3733C94.9047 68.1768 92.5483 67.8821 91.173 67.8821C84.3002 67.8821 82.0421 71.6138 82.0421 75.9337C82.0421 78.7824 83.3179 80.843 86.6567 82.4135C89.1113 83.5923 89.5042 83.7876 89.5042 84.8693C89.5042 86.3405 88.2284 87.2257 85.8708 87.2257C84.0056 87.2257 82.2374 86.9299 80.2739 86.2434L79.5863 91.6427L79.6833 91.7421L80.8621 91.9385C81.2551 92.0356 81.7462 92.135 82.4338 92.2321C83.9062 92.3315 85.1832 92.4286 85.969 92.4286C92.8429 92.4286 95.6905 89.7786 95.6905 84.5735C95.6905 81.3341 94.1188 79.3707 91.0748 77.9966C88.4237 76.8166 88.129 76.6225 88.129 75.5408C88.129 74.4614 89.3078 73.4791 91.173 73.4791Z" fill="#1B3771"/>
<path fill-rule="evenodd" clip-rule="evenodd" d="M162.658 62.0888L161.576 68.3733C159.416 67.2928 157.845 66.8027 156.078 66.8027C151.462 66.8027 148.223 71.3191 148.223 77.7019C148.223 82.1211 150.383 84.7711 154.017 84.7711C155.488 84.7711 157.256 84.2811 159.22 83.2999L158.141 89.8768C155.881 90.4662 154.409 90.7621 152.739 90.7621C146.063 90.7621 141.938 85.9499 141.938 78.1942C141.938 67.8833 147.633 60.6165 155.783 60.6165C156.862 60.6165 157.844 60.7147 158.629 60.9111L161.085 61.5005C161.872 61.7952 162.069 61.8935 162.658 62.0888ZM142.822 66.4098H142.233C140.172 66.4098 138.993 67.3921 137.127 70.2385L137.716 66.6051H132.118L128.291 90.1715H134.478C136.735 75.7372 137.325 73.2826 140.27 73.2826H140.663C141.253 70.435 142.037 68.3721 143.02 66.5069L142.822 66.4098ZM107.277 89.8768C105.608 90.4662 104.233 90.6627 102.859 90.6627C99.7169 90.6627 97.9487 88.8957 97.9487 85.4599C97.9487 84.8705 98.0469 84.0858 98.1451 83.397L98.5381 81.0406L98.8328 79.1765L101.484 63.0711H107.572L106.884 66.6063H110.027L109.241 72.3997H106.098L104.43 82.2194C104.331 82.6123 104.331 82.9081 104.331 83.2017C104.331 84.3805 104.921 84.8716 106.393 84.8716C107.081 84.8716 107.669 84.8716 108.062 84.6752L107.277 89.8768ZM83.6126 74.0684C83.6126 77.0154 84.9867 79.076 88.2272 80.6477C90.7801 81.8264 91.173 82.2182 91.173 83.2005C91.173 84.674 90.0924 85.3605 87.6378 85.3605C85.7725 85.3605 84.1026 85.0669 82.1391 84.4775L81.255 89.8768L81.5497 89.9762L82.6303 90.1727C83.0221 90.2698 83.5144 90.3691 84.2991 90.3691C85.6732 90.5656 86.8519 90.5656 87.6378 90.5656C94.1176 90.5656 97.1628 88.1098 97.1628 82.7105C97.1628 79.4689 95.887 77.6025 92.8429 76.1313C90.1918 74.9525 89.8971 74.659 89.8971 73.5784C89.8971 72.3026 90.9777 71.7132 92.9412 71.7132C94.1199 71.7132 95.7887 71.8114 97.3604 72.0079L98.2434 66.6074C96.6728 66.3127 94.2182 66.1163 92.8429 66.1163C85.969 66.1151 83.5144 69.7485 83.6126 74.0684ZM209.693 90.1727H203.898L204.194 87.9133C202.524 89.6804 200.756 90.4662 198.496 90.4662C193.98 90.4662 191.034 86.6386 191.034 80.747C191.034 72.8908 195.65 66.2134 201.049 66.2134C203.505 66.2134 205.272 67.2939 206.943 69.4538L208.317 61.2058H214.405L209.693 90.1727ZM200.658 84.674C203.506 84.674 205.47 81.3353 205.47 76.7195C205.47 73.6755 204.388 72.1038 202.228 72.1038C199.479 72.1038 197.418 75.3443 197.418 79.96C197.418 83.1035 198.498 84.674 200.658 84.674ZM126.13 89.6804C123.969 90.3691 122.005 90.6627 119.747 90.6627C112.873 90.6627 109.338 87.0304 109.338 80.0583C109.338 72.0067 113.855 66.0169 120.042 66.0169C125.147 66.0169 128.387 69.3556 128.387 74.5596C128.387 76.3278 128.19 77.9977 127.601 80.4512H115.427C115.329 80.7471 115.329 80.9435 115.329 81.14C115.329 83.8893 117.195 85.2634 120.729 85.2634C122.987 85.2634 124.951 84.8705 127.112 83.7899L126.13 89.6804ZM122.693 75.639V74.4614C122.693 72.4979 121.612 71.4173 119.747 71.4173C117.783 71.4173 116.408 72.8908 115.819 75.639H122.693ZM60.1444 90.1727H54.0564L57.5916 67.8821L49.6383 90.1727H45.4155L44.9243 68.0786L41.1938 90.1727H35.4987L40.3097 61.2058H49.1471L49.4418 79.1753L55.3322 61.2058H64.9555L60.1444 90.1727ZM75.3646 79.6653C74.7752 79.6653 74.4805 79.5683 73.9894 79.5683C70.5524 79.5683 68.7854 80.8441 68.7854 83.2005C68.7854 84.674 69.5712 85.5569 70.9453 85.5569C73.4982 85.5569 75.2664 83.2005 75.3646 79.6653ZM79.881 90.1727H74.7741L74.8723 87.7169C73.3006 89.6804 71.2389 90.5656 68.3913 90.5656C65.0526 90.5656 62.7944 88.0127 62.7944 84.1828C62.7944 78.3906 66.7214 75.0519 73.5953 75.0519C74.2829 75.0519 75.167 75.1501 76.1481 75.2472C76.3446 74.4625 76.3446 74.1678 76.3446 73.7749C76.3446 72.2043 75.2641 71.615 72.4165 71.615C70.6495 71.615 68.6848 71.8114 67.3107 72.2043L66.4267 72.499L65.8373 72.5973L66.7214 67.2951C69.7654 66.411 71.8271 66.1163 74.0864 66.1163C79.3886 66.1163 82.2362 68.4727 82.2362 72.989C82.2362 74.1678 82.138 75.0519 81.7451 77.703L80.3698 86.0504L80.1733 87.5216L80.0751 88.7004L79.9769 89.5856L79.881 90.1727ZM172.576 79.6653C171.887 79.6653 171.594 79.5683 171.202 79.5683C167.667 79.5683 165.897 80.8441 165.897 83.2005C165.897 84.674 166.783 85.5569 168.157 85.5569C170.612 85.5569 172.477 83.2005 172.576 79.6653ZM177.092 90.1727H171.987L172.084 87.7169C170.513 89.6804 168.451 90.5656 165.604 90.5656C162.265 90.5656 160.006 88.0127 160.006 84.1828C160.006 78.3906 163.933 75.0519 170.807 75.0519C171.495 75.0519 172.38 75.1501 173.262 75.2472C173.459 74.4625 173.558 74.1678 173.558 73.7749C173.558 72.2043 172.477 71.615 169.631 71.615C167.862 71.615 165.801 71.8114 164.426 72.2043L163.64 72.499L163.051 72.5973L163.934 67.2951C166.979 66.411 169.04 66.1163 171.299 66.1163C176.601 66.1163 179.351 68.4727 179.351 72.989C179.351 74.1678 179.351 75.0519 178.861 77.703L177.583 86.0504L177.387 87.5216L177.191 88.7004L177.093 89.5856L177.092 90.1727ZM193.588 66.4098H192.999C190.938 66.4098 189.76 67.3921 187.893 70.2385L188.483 66.6051H182.885L179.153 90.1715H185.241C187.5 75.7372 188.09 73.2826 191.035 73.2826H191.428C192.018 70.435 192.802 68.3721 193.785 66.5069L193.588 66.4098Z" fill="white"/>
</svg>
