<svg width="250" height="150" viewBox="0 0 250 150" fill="none" xmlns="http://www.w3.org/2000/svg">
<path d="M243.333 72.942V68.7644H238.165V62.2697L237.991 62.3235L233.136 63.8144L233.04 63.8436V68.7646H225.378V66.0232C225.378 64.7466 225.662 63.7698 226.223 63.1183C226.779 62.4747 227.575 62.1475 228.59 62.1475C229.32 62.1475 230.076 62.32 230.837 62.6604L231.027 62.7458V58.3462L230.938 58.3131C230.228 58.0571 229.263 57.9282 228.067 57.9282C226.559 57.9282 225.19 58.2575 223.995 58.9101C222.8 59.5637 221.859 60.4966 221.201 61.6828C220.544 62.8676 220.211 64.236 220.211 65.7504V68.7644H216.612V72.942H220.211V90.5416H225.378V72.942H233.04V84.1263C233.04 88.7325 235.205 91.0667 239.474 91.0667C240.175 91.0667 240.914 90.9842 241.668 90.8227C242.435 90.6568 242.958 90.4911 243.265 90.3141L243.333 90.2737V86.0575L243.123 86.1969C242.843 86.3844 242.494 86.5377 242.084 86.6517C241.673 86.7677 241.33 86.8259 241.064 86.8259C240.064 86.8259 239.324 86.5554 238.865 86.0216C238.4 85.483 238.165 84.541 238.165 83.2234V72.942H243.333ZM205.075 86.8266C203.199 86.8266 201.721 86.2025 200.679 84.9731C199.631 83.7375 199.099 81.9759 199.099 79.7377C199.099 77.4285 199.631 75.6212 200.679 74.3637C201.722 73.1146 203.186 72.4806 205.032 72.4806C206.824 72.4806 208.25 73.0861 209.272 74.2812C210.298 75.4826 210.819 77.2754 210.819 79.6115C210.819 81.9763 210.329 83.7928 209.363 85.008C208.404 86.2139 206.961 86.8266 205.075 86.8266ZM205.304 68.2397C201.727 68.2397 198.885 69.292 196.859 71.3672C194.834 73.4427 193.808 76.3149 193.808 79.9047C193.808 83.3144 194.81 86.057 196.786 88.055C198.763 90.0538 201.453 91.0663 204.781 91.0663C208.249 91.0663 211.034 89.9993 213.059 87.8953C215.084 85.7936 216.11 82.9486 216.11 79.4426C216.11 75.9796 215.148 73.2166 213.248 71.2319C211.348 69.2462 208.674 68.2397 205.304 68.2397ZM185.478 68.2397C183.044 68.2397 181.031 68.8645 179.493 70.0965C177.946 71.3357 177.161 72.9611 177.161 74.9279C177.161 75.9502 177.33 76.8584 177.664 77.6286C177.999 78.4014 178.518 79.0818 179.208 79.6529C179.892 80.2193 180.948 80.8127 182.348 81.4163C183.525 81.9023 184.402 82.3134 184.96 82.6374C185.505 82.955 185.891 83.2742 186.11 83.5851C186.322 83.8894 186.43 84.3057 186.43 84.8196C186.43 86.2826 185.338 86.9945 183.092 86.9945C182.259 86.9945 181.309 86.8199 180.268 86.4757C179.234 86.1367 178.258 85.6402 177.375 85.0036L177.161 84.8492V89.8419L177.239 89.8787C177.97 90.2174 178.892 90.503 179.978 90.7278C181.063 90.9527 182.048 91.0672 182.904 91.0672C185.544 91.0672 187.671 90.4394 189.223 89.2001C190.784 87.9523 191.576 86.2886 191.576 84.2538C191.576 82.7859 191.15 81.5271 190.31 80.5119C189.476 79.5049 188.028 78.5804 186.009 77.7633C184.401 77.1153 183.37 76.5773 182.945 76.1644C182.535 75.7655 182.327 75.2013 182.327 74.4869C182.327 73.8536 182.584 73.3462 183.111 72.9353C183.643 72.5224 184.382 72.3124 185.31 72.3124C186.171 72.3124 187.052 72.4489 187.928 72.7163C188.803 72.9838 189.572 73.3421 190.213 73.7803L190.424 73.9251V69.189L190.343 69.1541C189.751 68.8992 188.971 68.6812 188.022 68.5042C187.078 68.3284 186.222 68.2397 185.478 68.2397ZM163.692 86.8266C161.817 86.8266 160.338 86.2025 159.297 84.9731C158.248 83.7375 157.718 81.9763 157.718 79.7377C157.718 77.4285 158.249 75.6212 159.298 74.3637C160.34 73.1146 161.804 72.4806 163.651 72.4806C165.442 72.4806 166.868 73.0861 167.889 74.2812C168.916 75.4826 169.437 77.2754 169.437 79.6115C169.437 81.9763 168.947 83.7928 167.981 85.008C167.021 86.2139 165.579 86.8266 163.692 86.8266ZM163.923 68.2397C160.344 68.2397 157.502 69.292 155.477 71.3672C153.452 73.4427 152.425 76.3149 152.425 79.9047C152.425 83.3158 153.428 86.057 155.405 88.055C157.381 90.0538 160.071 91.0663 163.399 91.0663C166.867 91.0663 169.652 89.9993 171.678 87.8953C173.702 85.7936 174.729 82.9486 174.729 79.4426C174.729 75.9796 173.766 73.2166 171.866 71.2319C169.965 69.2462 167.292 68.2397 163.923 68.2397ZM144.583 72.5357V68.7644H139.479V90.5412H144.583V79.4015C144.583 77.5073 145.01 75.9511 145.855 74.7757C146.688 73.6144 147.799 73.0259 149.155 73.0259C149.615 73.0259 150.131 73.1019 150.69 73.2524C151.243 73.402 151.644 73.5645 151.88 73.7355L152.095 73.8915V68.7271L152.012 68.6915C151.537 68.4888 150.864 68.3866 150.013 68.3866C148.731 68.3866 147.583 68.8002 146.6 69.6146C145.737 70.3304 145.114 71.3118 144.637 72.5357H144.583ZM130.339 68.2397C127.998 68.2397 125.91 68.7437 124.133 69.7371C122.353 70.7328 120.977 72.1543 120.04 73.9618C119.108 75.765 118.634 77.8713 118.634 80.2202C118.634 82.2778 119.093 84.166 120 85.8302C120.908 87.4971 122.193 88.8012 123.819 89.7057C125.444 90.609 127.321 91.0669 129.399 91.0669C131.824 91.0669 133.895 90.5802 135.555 89.6204L135.622 89.5818V84.8887L135.408 85.0459C134.656 85.5958 133.815 86.0347 132.911 86.3509C132.009 86.6669 131.187 86.8266 130.466 86.8266C128.463 86.8266 126.855 86.1976 125.689 84.9577C124.519 83.7161 123.926 81.9726 123.926 79.7788C123.926 77.5712 124.545 75.7829 125.763 74.4635C126.978 73.1479 128.589 72.4806 130.55 72.4806C132.227 72.4806 133.862 73.0507 135.408 74.1767L135.622 74.3327V69.3878L135.553 69.3487C134.971 69.0217 134.178 68.7517 133.192 68.547C132.211 68.3427 131.251 68.2397 130.339 68.2397ZM115.119 68.7646H110.016V90.5412H115.119V68.7646ZM112.62 59.4876C111.78 59.4876 111.047 59.7746 110.445 60.3434C109.841 60.9137 109.534 61.6318 109.534 62.4793C109.534 63.3134 109.837 64.0184 110.436 64.5736C111.031 65.1272 111.766 65.4078 112.62 65.4078C113.474 65.4078 114.212 65.1272 114.814 64.5745C115.419 64.0184 115.727 63.3137 115.727 62.4793C115.727 61.6614 115.428 60.9507 114.839 60.3663C114.25 59.7831 113.503 59.4876 112.62 59.4876ZM99.886 67.1579V90.5412H105.094V60.1542H97.8857L88.7231 82.7248L79.8313 60.1542H72.3291V90.5409H77.2236V67.1556H77.3917L86.7812 90.5412H90.4749L99.718 67.1579H99.886Z" fill="#706D6E"/>
<path d="M30.6752 74.098H6.66669V50H30.6752V74.098Z" fill="#F1511B"/>
<path d="M57.1834 74.098H33.1753V50H57.1834V74.098Z" fill="#80CC28"/>
<path d="M30.6745 100.714H6.66669V76.6165H30.6745V100.714Z" fill="#00ADEF"/>
<path d="M57.1834 100.714H33.1753V76.6165H57.1834V100.714Z" fill="#FBBC09"/>
</svg>
