<svg width="250" height="150" viewBox="0 0 250 150" fill="none" xmlns="http://www.w3.org/2000/svg">
<path d="M110.668 108.194H93.2258L104.127 41.1971H121.572L110.668 108.194ZM78.552 41.1971L61.9229 87.2778L59.9552 77.3548L59.957 77.3584L54.0878 47.2294C54.0878 47.2294 53.3781 41.1971 45.8136 41.1971H18.3226L18 42.3315C18 42.3315 26.4068 44.0806 36.2455 49.9892L51.3996 108.195H69.5735L97.3244 41.1971H78.552ZM215.747 108.194H231.763L217.799 41.1953H203.778C197.303 41.1953 195.726 46.1882 195.726 46.1882L169.711 108.194H187.894L191.53 98.2419H213.704L215.747 108.194ZM196.554 84.4946L205.719 59.4229L210.875 84.4946H196.554ZM171.075 57.3082L173.565 42.9211C173.565 42.9211 165.884 40 157.876 40C149.22 40 128.665 43.7832 128.665 62.1792C128.665 79.4875 152.79 79.7025 152.79 88.7939C152.79 97.8853 131.151 96.2563 124.009 90.5233L121.416 105.566C121.416 105.566 129.204 109.349 141.104 109.349C153.007 109.349 170.964 103.186 170.964 86.4122C170.964 68.9928 146.622 67.371 146.622 59.7975C146.624 52.2222 163.611 53.1953 171.075 57.3082Z" fill="#2566AF"/>
<path d="M59.957 77.3566L54.0878 47.2276C54.0878 47.2276 53.3781 41.1953 45.8136 41.1953H18.3226L18 42.3297C18 42.3297 31.2133 45.0681 43.8871 55.3279C56.0054 65.1344 59.957 77.3566 59.957 77.3566Z" fill="#E6A540"/>
</svg>
