<svg width="250" height="150" viewBox="0 0 250 150" fill="none" xmlns="http://www.w3.org/2000/svg">
<path d="M24.577 57.3435C32.2847 56.1641 40.0072 55.0532 47.7296 53.9814C47.7345 60.7496 47.7296 67.5129 47.7345 74.281C40.017 74.3104 32.2994 74.4278 24.577 74.4523C24.5721 68.7461 24.5721 63.0448 24.577 57.3435ZM5.00171 60.0742C10.8058 59.1787 16.6348 58.4055 22.4633 57.6763C22.4682 63.2895 22.4682 68.8978 22.4731 74.511C16.6495 74.5061 10.8254 74.5942 5.00171 74.5795V60.0742ZM97.211 61.0188C98.7379 60.0449 100.691 62.0758 99.7999 63.6027C99.3692 64.7234 97.7934 65.1491 96.9027 64.327C95.7869 63.5684 95.9435 61.5522 97.211 61.0188ZM137.198 60.8181C138.177 60.8132 139.156 60.8132 140.135 60.8132V88.2186H137.209C137.214 87.2252 137.194 86.2312 137.125 85.2383C135.006 89.0452 129.339 89.8874 126.1 87.0637C123.785 85.0719 123.08 81.8322 123.203 78.9003C123.227 75.9248 124.206 72.7634 126.574 70.8206C129.653 68.2856 135.109 68.4324 137.218 72.1566C137.179 68.3742 137.213 64.5961 137.198 60.8181ZM130.876 71.653C128.527 72.025 126.936 74.1684 126.496 76.3853C125.918 79.0574 126.021 82.1498 127.705 84.421C129.525 86.8381 133.543 86.8924 135.491 84.607C136.817 83.2269 137.194 81.2498 137.204 79.3999C137.218 77.4473 137.385 75.2451 136.088 73.6154C134.942 71.9858 132.804 71.2517 130.876 71.653ZM223.922 61.8654C224.181 61.8311 224.7 61.7577 224.954 61.7235C224.969 70.5519 224.96 79.3853 224.96 88.2186H222.063C222.082 80.8681 222.013 73.5127 222.096 66.1622C220.251 67.4394 218.26 68.5308 216.092 69.1376C216.106 68.1588 216.116 67.1801 216.125 66.2013C218.965 65.2372 221.548 63.681 223.922 61.8654ZM235.662 61.8556C238.207 61.4298 241.031 62.3597 242.543 64.5227C244.692 67.5569 244.892 71.4475 245 75.0347C244.927 78.8225 244.511 82.9279 242.093 86.0164C239.867 88.938 235.306 89.6231 232.32 87.4747C229.898 85.7276 228.948 82.6783 228.518 79.8551C228.028 75.6611 228.072 71.2615 229.531 67.2584C230.45 64.5423 232.721 62.2031 235.662 61.8556ZM235.212 64.4836C232.603 65.5406 231.855 68.6237 231.493 71.1294C231.111 74.6236 231.023 78.2254 231.855 81.6653C232.271 83.359 233.147 85.1551 234.825 85.8984C236.729 86.8576 239.274 86.0311 240.277 84.1513C241.877 81.3868 241.916 78.0683 241.936 74.9612C241.872 71.932 241.75 68.6727 240.076 66.0398C239.083 64.4346 236.944 63.7887 235.212 64.4836ZM60.7668 62.2765C61.8679 62.2814 62.969 62.2814 64.075 62.296C65.7932 68.5014 67.4865 74.7166 69.2086 80.9263C69.5795 82.2314 69.8478 83.5635 70.0112 84.9104C71.8023 77.2907 74.2492 69.8325 76.3046 62.2765C77.2589 62.2814 78.2132 62.2814 79.168 62.2863C80.6802 67.6646 82.094 73.0673 83.5915 78.4505C84.145 80.594 84.8595 82.7082 85.0846 84.9246C86.7045 77.3147 89.0139 69.8565 90.8491 62.296C91.9355 62.2814 93.0219 62.2814 94.1084 62.2814C91.7397 70.9385 89.2733 79.5712 86.8758 88.2186H83.3468C81.6095 82.0088 79.8874 75.7927 78.1305 69.5927C77.8364 68.5895 77.7141 67.552 77.6216 66.5145C77.4845 67.4101 77.3573 68.3154 77.1268 69.1914C75.3503 75.5142 73.5494 81.8268 71.8219 88.1599C70.6479 88.2235 69.4729 88.2284 68.2984 88.2186C65.778 79.5761 63.2773 70.9238 60.7668 62.2765ZM107.312 72.6171C108.99 69.627 112.906 68.2518 116.062 69.6368C118.573 70.6155 119.507 73.522 119.586 75.9987C119.722 80.0699 119.61 84.1465 119.644 88.2186C118.666 88.2186 117.687 88.2186 116.708 88.2137C116.663 84.3035 116.811 80.3836 116.639 76.4734C116.561 74.5355 115.739 72.206 113.63 71.7117C110.552 70.7819 107.478 73.5567 107.38 76.6007C107.292 80.4717 107.375 84.3476 107.346 88.2186H104.409C104.415 82.0181 104.415 75.8226 104.409 69.6221H107.351C107.346 70.6204 107.341 71.6188 107.312 72.6171ZM151.557 69.1621C154.175 68.9321 157.077 69.3431 159.044 71.237C161.266 73.2876 161.927 76.4734 161.805 79.3853C161.77 82.0034 160.801 84.6608 158.883 86.4862C154.88 90.1272 147.446 89.3295 144.906 84.3231C142.91 80.1291 143.31 74.325 146.956 71.1392C148.263 70.0332 149.917 69.5291 151.557 69.1621ZM151.028 71.8243C146.716 73.1505 145.987 78.7833 147.333 82.4879C148.405 85.7766 152.584 87.2349 155.584 85.6983C157.615 84.7636 158.54 82.4733 158.736 80.3738C158.955 77.922 158.76 75.1428 157.028 73.2288C155.56 71.5747 153.074 71.2175 151.028 71.8243ZM196.086 69.1523C197.921 69.025 199.79 69.2012 201.518 69.8766C201.997 70.7868 201.626 71.9809 201.739 73.0037C199.678 71.7166 196.839 70.8945 194.603 72.206C193.072 73.038 192.998 75.4991 194.491 76.4147C196.629 77.7997 199.346 78.1618 201.244 79.9432C203.339 81.9594 202.83 85.8353 200.378 87.3475C197.398 89.2463 193.473 89.0603 190.351 87.6118C190.351 86.5155 190.346 85.4198 190.326 84.3231C192.548 86.0164 195.67 86.956 198.328 85.7521C199.879 84.974 199.957 82.5907 198.592 81.5875C196.453 80.0117 193.522 79.7621 191.623 77.7948C189.749 75.9058 190.086 72.4311 192.177 70.8309C193.257 69.8374 194.72 69.5389 196.086 69.1523ZM96.5797 69.627C97.5585 69.6221 98.5373 69.6221 99.516 69.6221V88.2186H96.5797C96.5797 82.0181 96.5846 75.8226 96.5797 69.627ZM163.028 69.6221H166.092C167.305 74.051 168.48 78.4897 169.718 82.9137C169.967 83.7452 170.06 84.607 170.148 85.4683C171.533 80.1345 173.285 74.8976 174.856 69.6172L177.534 69.6319C178.88 74.9172 180.553 80.1242 181.669 85.4634C182.819 80.1531 184.453 74.9612 185.731 69.6808C186.715 69.6319 187.698 69.6172 188.686 69.6074C186.822 75.8084 185.035 82.0279 183.162 88.2186H180.117C178.796 83.178 177.083 78.2352 176.011 73.1407C174.734 78.2303 172.962 83.1829 171.504 88.2186H168.563C166.723 82.0181 164.844 75.8319 163.028 69.6221ZM5.00171 76.3462C10.8209 76.3266 16.6392 76.4196 22.458 76.4098C22.458 82.0377 22.4726 87.6656 22.4633 93.2935C16.6495 92.4317 10.8254 91.6785 5.00171 90.8906V76.3462ZM24.5427 76.5713H47.7296C47.7394 83.3199 47.7296 90.0685 47.7296 96.8219C40.0219 95.667 32.2994 94.5952 24.577 93.5485C24.5672 87.8907 24.5525 82.2335 24.5427 76.5713Z" fill="#00ADEF"/>
</svg>
